<svg width="387" height="57" viewBox="0 0 387 57" fill="none" xmlns="http://www.w3.org/2000/svg">
<path d="M4.34 15.098C3.65867 15.098 3.04267 14.9813 2.492 14.748C1.95067 14.5147 1.52133 14.1787 1.204 13.74C0.886667 13.3013 0.723333 12.7833 0.714 12.186H2.814C2.842 12.5873 2.982 12.9047 3.234 13.138C3.49533 13.3713 3.85 13.488 4.298 13.488C4.75533 13.488 5.11467 13.3807 5.376 13.166C5.63733 12.942 5.768 12.6527 5.768 12.298C5.768 12.0087 5.67933 11.7707 5.502 11.584C5.32467 11.3973 5.10067 11.2527 4.83 11.15C4.56867 11.038 4.20467 10.9167 3.738 10.786C3.10333 10.5993 2.58533 10.4173 2.184 10.24C1.792 10.0533 1.45133 9.778 1.162 9.414C0.882 9.04067 0.742 8.546 0.742 7.93C0.742 7.35133 0.886667 6.84733 1.176 6.418C1.46533 5.98867 1.87133 5.662 2.394 5.438C2.91667 5.20467 3.514 5.088 4.186 5.088C5.194 5.088 6.01067 5.33533 6.636 5.83C7.27067 6.31533 7.62067 6.99667 7.686 7.874H5.53C5.51133 7.538 5.36667 7.26267 5.096 7.048C4.83467 6.824 4.48467 6.712 4.046 6.712C3.66333 6.712 3.35533 6.81 3.122 7.006C2.898 7.202 2.786 7.48667 2.786 7.86C2.786 8.12133 2.87 8.34067 3.038 8.518C3.21533 8.686 3.43 8.826 3.682 8.938C3.94333 9.04067 4.30733 9.162 4.774 9.302C5.40867 9.48867 5.92667 9.67533 6.328 9.862C6.72933 10.0487 7.07467 10.3287 7.364 10.702C7.65333 11.0753 7.798 11.5653 7.798 12.172C7.798 12.6947 7.66267 13.18 7.392 13.628C7.12133 14.076 6.72467 14.4353 6.202 14.706C5.67933 14.9673 5.05867 15.098 4.34 15.098ZM11.7793 8.854V12.606C11.7793 12.8673 11.8399 13.0587 11.9613 13.18C12.0919 13.292 12.3066 13.348 12.6053 13.348H13.5153V15H12.2833C10.6313 15 9.80525 14.1973 9.80525 12.592V8.854H8.88125V7.244H9.80525V5.326H11.7793V7.244H13.5153V8.854H11.7793ZM22.135 10.954C22.135 11.234 22.1163 11.486 22.079 11.71H16.409C16.4557 12.27 16.6517 12.7087 16.997 13.026C17.3423 13.3433 17.767 13.502 18.271 13.502C18.999 13.502 19.517 13.1893 19.825 12.564H21.939C21.715 13.3107 21.2857 13.9267 20.651 14.412C20.0163 14.888 19.237 15.126 18.313 15.126C17.5663 15.126 16.8943 14.9627 16.297 14.636C15.709 14.3 15.247 13.8287 14.911 13.222C14.5843 12.6153 14.421 11.9153 14.421 11.122C14.421 10.3193 14.5843 9.61467 14.911 9.008C15.2377 8.40133 15.695 7.93467 16.283 7.608C16.871 7.28133 17.5477 7.118 18.313 7.118C19.0503 7.118 19.7083 7.27667 20.287 7.594C20.875 7.91133 21.3277 8.364 21.645 8.952C21.9717 9.53067 22.135 10.198 22.135 10.954ZM20.105 10.394C20.0957 9.89 19.9137 9.48867 19.559 9.19C19.2043 8.882 18.7703 8.728 18.257 8.728C17.7717 8.728 17.361 8.87733 17.025 9.176C16.6983 9.46533 16.4977 9.87133 16.423 10.394H20.105ZM25.5256 8.364C25.7776 8.00933 26.1229 7.71533 26.5616 7.482C27.0096 7.23933 27.5183 7.118 28.0876 7.118C28.7503 7.118 29.3476 7.28133 29.8796 7.608C30.4209 7.93467 30.8456 8.40133 31.1536 9.008C31.4709 9.60533 31.6296 10.3007 31.6296 11.094C31.6296 11.8873 31.4709 12.592 31.1536 13.208C30.8456 13.8147 30.4209 14.286 29.8796 14.622C29.3476 14.958 28.7503 15.126 28.0876 15.126C27.5183 15.126 27.0143 15.0093 26.5756 14.776C26.1463 14.5427 25.7963 14.2487 25.5256 13.894V18.696H23.5656V7.244H25.5256V8.364ZM29.6276 11.094C29.6276 10.6273 29.5296 10.226 29.3336 9.89C29.1469 9.54467 28.8949 9.28333 28.5776 9.106C28.2696 8.92867 27.9336 8.84 27.5696 8.84C27.2149 8.84 26.8789 8.93333 26.5616 9.12C26.2536 9.29733 26.0016 9.55867 25.8056 9.904C25.6189 10.2493 25.5256 10.6553 25.5256 11.122C25.5256 11.5887 25.6189 11.9947 25.8056 12.34C26.0016 12.6853 26.2536 12.9513 26.5616 13.138C26.8789 13.3153 27.2149 13.404 27.5696 13.404C27.9336 13.404 28.2696 13.3107 28.5776 13.124C28.8949 12.9373 29.1469 12.6713 29.3336 12.326C29.5296 11.9807 29.6276 11.57 29.6276 11.094ZM35.9278 6.6V4.794H39.3018V15H37.2858V6.6H35.9278ZM48.242 15.126C47.4954 15.126 46.8234 14.9627 46.226 14.636C45.6287 14.3 45.1574 13.8287 44.812 13.222C44.476 12.6153 44.308 11.9153 44.308 11.122C44.308 10.3287 44.4807 9.62867 44.826 9.022C45.1807 8.41533 45.6614 7.94867 46.268 7.622C46.8747 7.286 47.5514 7.118 48.298 7.118C49.0447 7.118 49.7214 7.286 50.328 7.622C50.9347 7.94867 51.4107 8.41533 51.756 9.022C52.1107 9.62867 52.288 10.3287 52.288 11.122C52.288 11.9153 52.106 12.6153 51.742 13.222C51.3874 13.8287 50.902 14.3 50.286 14.636C49.6794 14.9627 48.998 15.126 48.242 15.126ZM48.242 13.418C48.5967 13.418 48.928 13.334 49.236 13.166C49.5534 12.9887 49.8054 12.7273 49.992 12.382C50.1787 12.0367 50.272 11.6167 50.272 11.122C50.272 10.3847 50.076 9.82 49.684 9.428C49.3014 9.02667 48.83 8.826 48.27 8.826C47.71 8.826 47.2387 9.02667 46.856 9.428C46.4827 9.82 46.296 10.3847 46.296 11.122C46.296 11.8593 46.478 12.4287 46.842 12.83C47.2154 13.222 47.682 13.418 48.242 13.418ZM57.2818 8.854H55.9238V15H53.9358V8.854H53.0538V7.244H53.9358V6.852C53.9358 5.9 54.2064 5.2 54.7478 4.752C55.2891 4.304 56.1058 4.094 57.1978 4.122V5.774C56.7218 5.76467 56.3904 5.844 56.2038 6.012C56.0171 6.18 55.9238 6.48333 55.9238 6.922V7.244H57.2818V8.854ZM62.2799 12.788C63.1759 12.0413 63.8899 11.4207 64.4219 10.926C64.9539 10.422 65.3972 9.89933 65.7519 9.358C66.1065 8.81667 66.2839 8.28467 66.2839 7.762C66.2839 7.286 66.1719 6.91267 65.9479 6.642C65.7239 6.37133 65.3785 6.236 64.9119 6.236C64.4452 6.236 64.0859 6.39467 63.8339 6.712C63.5819 7.02 63.4512 7.44467 63.4419 7.986H61.5379C61.5752 6.866 61.9065 6.01667 62.5319 5.438C63.1665 4.85933 63.9692 4.57 64.9399 4.57C66.0039 4.57 66.8205 4.85467 67.3899 5.424C67.9592 5.984 68.2439 6.726 68.2439 7.65C68.2439 8.378 68.0479 9.07333 67.6559 9.736C67.2639 10.3987 66.8159 10.9773 66.3119 11.472C65.8079 11.9573 65.1499 12.5453 64.3379 13.236H68.4679V14.86H61.5519V13.404L62.2799 12.788Z" fill="#369F80"/>
<line x1="23" y1="44" x2="376" y2="44" stroke="#312E81" stroke-width="2"/>
<circle cx="12" cy="45" r="10.8083" stroke="#0800A5" stroke-width="2.38333"/>
<circle cx="12" cy="45" r="3.75" fill="#0800A5"/>
<circle cx="193" cy="45" r="10.8083" stroke="#0800A5" stroke-width="2.38333"/>
<circle cx="193" cy="45" r="3.75" fill="#0800A5"/>
<circle cx="374" cy="45" r="10.8083" stroke="#0800A5" stroke-width="2.38333"/>
<circle cx="374" cy="45" r="3.75" fill="#0800A5"/>
</svg>
