<svg width="286" height="65" viewBox="0 0 286 65" fill="none" xmlns="http://www.w3.org/2000/svg">
<circle cx="38.0667" cy="19.502" r="19.0667" fill="#312E81"/>
<path d="M31.1155 20.495L35.0877 24.4672L45.0183 14.5367" stroke="white" stroke-width="2.38333" stroke-linecap="round" stroke-linejoin="round"/>
<rect x="57.1333" y="18.3103" width="95.3333" height="2.38333" fill="#4F46E5"/>
<circle cx="171.533" cy="19.502" r="17.875" stroke="#0800A5" stroke-width="2.38333"/>
<circle cx="171.534" cy="19.502" r="5.95833" fill="#0800A5"/>
<path d="M0.880682 58.4353V51.1626H3.33807C3.90862 51.1626 4.375 51.2656 4.73722 51.4715C5.1018 51.6751 5.37169 51.9509 5.54688 52.2989C5.72206 52.647 5.80966 53.0352 5.80966 53.4637C5.80966 53.8922 5.72206 54.2817 5.54688 54.632C5.37405 54.9824 5.10653 55.2618 4.74432 55.4701C4.3821 55.6761 3.91809 55.7791 3.35227 55.7791H1.59091V54.9978H3.32386C3.71449 54.9978 4.02817 54.9303 4.26491 54.7954C4.50166 54.6604 4.6733 54.4782 4.77983 54.2485C4.88873 54.0165 4.94318 53.7549 4.94318 53.4637C4.94318 53.1725 4.88873 52.9121 4.77983 52.6825C4.6733 52.4528 4.50047 52.2729 4.26136 52.1427C4.02225 52.0101 3.70502 51.9438 3.30966 51.9438H1.76136V58.4353H0.880682ZM9.34304 58.5489C8.81747 58.5489 8.36411 58.4329 7.98295 58.2009C7.60417 57.9666 7.31179 57.6398 7.10582 57.2208C6.90223 56.7994 6.80043 56.3094 6.80043 55.7506C6.80043 55.1919 6.90223 54.6995 7.10582 54.2734C7.31179 53.8449 7.59825 53.5111 7.9652 53.272C8.33452 53.0305 8.76539 52.9097 9.25781 52.9097C9.5419 52.9097 9.82244 52.9571 10.0994 53.0518C10.3764 53.1465 10.6286 53.3004 10.8558 53.5134C11.0831 53.7241 11.2642 54.0035 11.3991 54.3515C11.5341 54.6995 11.6016 55.128 11.6016 55.637V55.9921H7.39702V55.2677H10.7493C10.7493 54.9599 10.6877 54.6853 10.5646 54.4438C10.4439 54.2023 10.2711 54.0118 10.0462 53.8721C9.82363 53.7324 9.56084 53.6626 9.25781 53.6626C8.92401 53.6626 8.63518 53.7454 8.39134 53.9112C8.14986 54.0745 7.96402 54.2876 7.83381 54.5504C7.7036 54.8131 7.63849 55.0949 7.63849 55.3955V55.8785C7.63849 56.2904 7.70952 56.6396 7.85156 56.9261C7.99598 57.2102 8.19602 57.4268 8.4517 57.5759C8.70739 57.7227 9.0045 57.7961 9.34304 57.7961C9.56321 57.7961 9.76207 57.7653 9.93963 57.7038C10.1196 57.6398 10.2746 57.5452 10.4048 57.4197C10.535 57.2918 10.6357 57.1332 10.7067 56.9438L11.5163 57.1711C11.4311 57.4457 11.2879 57.6872 11.0866 57.8955C10.8854 58.1015 10.6368 58.2625 10.3409 58.3785C10.045 58.4921 9.71236 58.5489 9.34304 58.5489ZM12.8764 58.4353V52.9808H13.6861V53.8046H13.7429C13.8423 53.5347 14.0223 53.3157 14.2827 53.1477C14.5431 52.9796 14.8366 52.8955 15.1634 52.8955C15.2249 52.8955 15.3018 52.8967 15.3942 52.8991C15.4865 52.9014 15.5563 52.905 15.6037 52.9097V53.762C15.5753 53.7549 15.5102 53.7443 15.4084 53.73C15.3089 53.7135 15.2036 53.7052 15.0923 53.7052C14.8272 53.7052 14.5904 53.7608 14.3821 53.8721C14.1761 53.981 14.0128 54.1325 13.892 54.3266C13.7737 54.5184 13.7145 54.7374 13.7145 54.9836V58.4353H12.8764ZM20.4608 54.2023L19.7079 54.4154C19.6606 54.2899 19.5907 54.168 19.4984 54.0496C19.4084 53.9289 19.2853 53.8295 19.1291 53.7514C18.9728 53.6732 18.7728 53.6342 18.5289 53.6342C18.1951 53.6342 17.917 53.7111 17.6944 53.865C17.4743 54.0165 17.3642 54.2095 17.3642 54.4438C17.3642 54.6522 17.4399 54.8167 17.5914 54.9374C17.743 55.0582 17.9797 55.1588 18.3017 55.2393L19.1113 55.4381C19.599 55.5565 19.9624 55.7376 20.2015 55.9815C20.4406 56.2229 20.5602 56.5343 20.5602 56.9154C20.5602 57.2279 20.4702 57.5073 20.2903 57.7535C20.1127 57.9997 19.8642 58.1938 19.5446 58.3359C19.225 58.4779 18.8533 58.5489 18.4295 58.5489C17.8732 58.5489 17.4127 58.4282 17.0481 58.1867C16.6835 57.9452 16.4527 57.5925 16.3556 57.1285L17.1511 56.9296C17.2269 57.2232 17.3701 57.4434 17.5808 57.5901C17.7939 57.7369 18.072 57.8103 18.4153 57.8103C18.8059 57.8103 19.1161 57.7274 19.3457 57.5617C19.5777 57.3936 19.6937 57.1924 19.6937 56.958C19.6937 56.7686 19.6274 56.61 19.4949 56.4822C19.3623 56.352 19.1587 56.2549 18.8841 56.191L17.975 55.9779C17.4754 55.8595 17.1085 55.6761 16.8741 55.4275C16.6421 55.1765 16.5261 54.8629 16.5261 54.4864C16.5261 54.1787 16.6125 53.9064 16.7853 53.6697C16.9605 53.4329 17.1984 53.2471 17.4991 53.1121C17.8021 52.9772 18.1454 52.9097 18.5289 52.9097C19.0687 52.9097 19.4925 53.0281 19.8002 53.2648C20.1104 53.5016 20.3306 53.8141 20.4608 54.2023ZM24.0376 58.5489C23.5452 58.5489 23.1132 58.4318 22.7415 58.1974C22.3722 57.963 22.0833 57.6351 21.875 57.2137C21.669 56.7923 21.5661 56.2999 21.5661 55.7364C21.5661 55.1683 21.669 54.6723 21.875 54.2485C22.0833 53.8247 22.3722 53.4957 22.7415 53.2613C23.1132 53.0269 23.5452 52.9097 24.0376 52.9097C24.5301 52.9097 24.9609 53.0269 25.3303 53.2613C25.7019 53.4957 25.9908 53.8247 26.1967 54.2485C26.4051 54.6723 26.5092 55.1683 26.5092 55.7364C26.5092 56.2999 26.4051 56.7923 26.1967 57.2137C25.9908 57.6351 25.7019 57.963 25.3303 58.1974C24.9609 58.4318 24.5301 58.5489 24.0376 58.5489ZM24.0376 57.7961C24.4117 57.7961 24.7195 57.7002 24.9609 57.5085C25.2024 57.3167 25.3812 57.0646 25.4972 56.7521C25.6132 56.4396 25.6712 56.101 25.6712 55.7364C25.6712 55.3719 25.6132 55.0321 25.4972 54.7173C25.3812 54.4024 25.2024 54.1479 24.9609 53.9538C24.7195 53.7596 24.4117 53.6626 24.0376 53.6626C23.6636 53.6626 23.3558 53.7596 23.1143 53.9538C22.8729 54.1479 22.6941 54.4024 22.5781 54.7173C22.4621 55.0321 22.4041 55.3719 22.4041 55.7364C22.4041 56.101 22.4621 56.4396 22.5781 56.7521C22.6941 57.0646 22.8729 57.3167 23.1143 57.5085C23.3558 57.7002 23.6636 57.7961 24.0376 57.7961ZM28.6266 55.1541V58.4353H27.7885V52.9808H28.5982V53.833H28.6692C28.7971 53.556 28.9912 53.3335 29.2516 53.1654C29.512 52.995 29.8482 52.9097 30.2601 52.9097C30.6294 52.9097 30.9526 52.9855 31.2296 53.137C31.5066 53.2862 31.722 53.5134 31.8759 53.8188C32.0298 54.1219 32.1067 54.5054 32.1067 54.9694V58.4353H31.2686V55.0262C31.2686 54.5977 31.1574 54.2639 30.9348 54.0248C30.7123 53.7833 30.4069 53.6626 30.0186 53.6626C29.7511 53.6626 29.512 53.7206 29.3013 53.8366C29.093 53.9526 28.9284 54.1219 28.8077 54.3444C28.687 54.5669 28.6266 54.8368 28.6266 55.1541ZM35.2433 58.5631C34.8976 58.5631 34.5839 58.498 34.3022 58.3678C34.0205 58.2353 33.7968 58.0447 33.631 57.7961C33.4653 57.5452 33.3825 57.2421 33.3825 56.887C33.3825 56.5745 33.444 56.3212 33.5671 56.1271C33.6902 55.9306 33.8548 55.7767 34.0607 55.6654C34.2667 55.5541 34.494 55.4713 34.7425 55.4168C34.9935 55.36 35.2456 55.315 35.4989 55.2819C35.8304 55.2393 36.0991 55.2073 36.305 55.186C36.5134 55.1623 36.6649 55.1233 36.7596 55.0688C36.8567 55.0144 36.9052 54.9197 36.9052 54.7847V54.7563C36.9052 54.4059 36.8093 54.1337 36.6175 53.9396C36.4281 53.7454 36.1405 53.6484 35.7546 53.6484C35.3545 53.6484 35.0408 53.736 34.8136 53.9112C34.5863 54.0863 34.4265 54.2734 34.3342 54.4722L33.5387 54.1881C33.6808 53.8567 33.8701 53.5987 34.1069 53.414C34.346 53.227 34.6064 53.0968 34.8881 53.0234C35.1722 52.9476 35.4516 52.9097 35.7262 52.9097C35.9014 52.9097 36.1026 52.931 36.3299 52.9737C36.5595 53.0139 36.7809 53.0979 36.994 53.2258C37.2094 53.3536 37.3881 53.5466 37.5302 53.8046C37.6722 54.0627 37.7433 54.4083 37.7433 54.8416V58.4353H36.9052V57.6967H36.8626C36.8058 57.815 36.7111 57.9417 36.5785 58.0766C36.4459 58.2116 36.2695 58.3264 36.0494 58.4211C35.8292 58.5158 35.5605 58.5631 35.2433 58.5631ZM35.3711 57.8103C35.7025 57.8103 35.9819 57.7452 36.2092 57.615C36.4388 57.4848 36.6116 57.3167 36.7276 57.1107C36.846 56.9048 36.9052 56.6881 36.9052 56.4609V55.6938C36.8697 55.7364 36.7915 55.7755 36.6708 55.811C36.5524 55.8442 36.4151 55.8737 36.2589 55.8998C36.105 55.9235 35.9547 55.9448 35.8079 55.9637C35.6635 55.9803 35.5463 55.9945 35.4563 56.0063C35.2385 56.0347 35.0349 56.0809 34.8455 56.1448C34.6585 56.2064 34.507 56.2999 34.391 56.4254C34.2773 56.5485 34.2205 56.7166 34.2205 56.9296C34.2205 57.2208 34.3282 57.441 34.5437 57.5901C34.7615 57.7369 35.0373 57.8103 35.3711 57.8103ZM40.111 51.1626V58.4353H39.2729V51.1626H40.111ZM46.8164 58.4353H44.5721V51.1626H46.9158C47.6213 51.1626 48.225 51.3082 48.7269 51.5994C49.2288 51.8882 49.6135 52.3037 49.881 52.8458C50.1486 53.3856 50.2823 54.0319 50.2823 54.7847C50.2823 55.5423 50.1474 56.1945 49.8775 56.7414C49.6076 57.2859 49.2146 57.705 48.6985 57.9985C48.1824 58.2897 47.555 58.4353 46.8164 58.4353ZM45.4528 57.6541H46.7596C47.3609 57.6541 47.8593 57.538 48.2546 57.306C48.65 57.074 48.9447 56.7438 49.1388 56.3153C49.333 55.8868 49.43 55.3766 49.43 54.7847C49.43 54.1976 49.3342 53.6922 49.1424 53.2684C48.9506 52.8423 48.6642 52.5156 48.283 52.2883C47.9019 52.0586 47.4272 51.9438 46.859 51.9438H45.4528V57.6541ZM53.9329 58.5489C53.4073 58.5489 52.954 58.4329 52.5728 58.2009C52.194 57.9666 51.9016 57.6398 51.6957 57.2208C51.4921 56.7994 51.3903 56.3094 51.3903 55.7506C51.3903 55.1919 51.4921 54.6995 51.6957 54.2734C51.9016 53.8449 52.1881 53.5111 52.555 53.272C52.9244 53.0305 53.3552 52.9097 53.8477 52.9097C54.1317 52.9097 54.4123 52.9571 54.6893 53.0518C54.9663 53.1465 55.2184 53.3004 55.4457 53.5134C55.6729 53.7241 55.854 54.0035 55.989 54.3515C56.1239 54.6995 56.1914 55.128 56.1914 55.637V55.9921H51.9869V55.2677H55.3391C55.3391 54.9599 55.2776 54.6853 55.1545 54.4438C55.0337 54.2023 54.8609 54.0118 54.636 53.8721C54.4135 53.7324 54.1507 53.6626 53.8477 53.6626C53.5138 53.6626 53.225 53.7454 52.9812 53.9112C52.7397 54.0745 52.5539 54.2876 52.4237 54.5504C52.2934 54.8131 52.2283 55.0949 52.2283 55.3955V55.8785C52.2283 56.2904 52.2994 56.6396 52.4414 56.9261C52.5858 57.2102 52.7859 57.4268 53.0415 57.5759C53.2972 57.7227 53.5943 57.7961 53.9329 57.7961C54.1531 57.7961 54.3519 57.7653 54.5295 57.7038C54.7094 57.6398 54.8645 57.5452 54.9947 57.4197C55.1249 57.2918 55.2255 57.1332 55.2965 56.9438L56.1062 57.1711C56.021 57.4457 55.8777 57.6872 55.6765 57.8955C55.4753 58.1015 55.2267 58.2625 54.9308 58.3785C54.6348 58.4921 54.3022 58.5489 53.9329 58.5489ZM59.8384 52.9808V53.691H57.0117V52.9808H59.8384ZM57.8356 51.6739H58.6737V56.8728C58.6737 57.1095 58.708 57.2871 58.7766 57.4055C58.8477 57.5215 58.9376 57.5996 59.0465 57.6398C59.1578 57.6777 59.275 57.6967 59.3981 57.6967C59.4904 57.6967 59.5662 57.6919 59.6254 57.6825C59.6845 57.6706 59.7319 57.6612 59.7674 57.6541L59.9379 58.4069C59.881 58.4282 59.8017 58.4495 59.6999 58.4708C59.5981 58.4945 59.4691 58.5063 59.3129 58.5063C59.0761 58.5063 58.8441 58.4554 58.6168 58.3536C58.3919 58.2518 58.2049 58.0968 58.0558 57.8884C57.909 57.6801 57.8356 57.4173 57.8356 57.1001V51.6739ZM62.7042 58.5631C62.3585 58.5631 62.0449 58.498 61.7631 58.3678C61.4814 58.2353 61.2577 58.0447 61.092 57.7961C60.9263 57.5452 60.8434 57.2421 60.8434 56.887C60.8434 56.5745 60.9049 56.3212 61.0281 56.1271C61.1512 55.9306 61.3157 55.7767 61.5217 55.6654C61.7276 55.5541 61.9549 55.4713 62.2035 55.4168C62.4544 55.36 62.7066 55.315 62.9599 55.2819C63.2913 55.2393 63.56 55.2073 63.766 55.186C63.9743 55.1623 64.1258 55.1233 64.2205 55.0688C64.3176 55.0144 64.3661 54.9197 64.3661 54.7847V54.7563C64.3661 54.4059 64.2702 54.1337 64.0785 53.9396C63.8891 53.7454 63.6014 53.6484 63.2156 53.6484C62.8155 53.6484 62.5018 53.736 62.2745 53.9112C62.0472 54.0863 61.8874 54.2734 61.7951 54.4722L60.9996 54.1881C61.1417 53.8567 61.3311 53.5987 61.5678 53.414C61.8069 53.227 62.0674 53.0968 62.3491 53.0234C62.6332 52.9476 62.9125 52.9097 63.1871 52.9097C63.3623 52.9097 63.5636 52.931 63.7908 52.9737C64.0205 53.0139 64.2418 53.0979 64.4549 53.2258C64.6703 53.3536 64.8491 53.5466 64.9911 53.8046C65.1332 54.0627 65.2042 54.4083 65.2042 54.8416V58.4353H64.3661V57.6967H64.3235C64.2667 57.815 64.172 57.9417 64.0394 58.0766C63.9068 58.2116 63.7305 58.3264 63.5103 58.4211C63.2901 58.5158 63.0214 58.5631 62.7042 58.5631ZM62.832 57.8103C63.1635 57.8103 63.4428 57.7452 63.6701 57.615C63.8997 57.4848 64.0726 57.3167 64.1886 57.1107C64.3069 56.9048 64.3661 56.6881 64.3661 56.4609V55.6938C64.3306 55.7364 64.2525 55.7755 64.1317 55.811C64.0134 55.8442 63.8761 55.8737 63.7198 55.8998C63.5659 55.9235 63.4156 55.9448 63.2688 55.9637C63.1244 55.9803 63.0072 55.9945 62.9173 56.0063C62.6995 56.0347 62.4959 56.0809 62.3065 56.1448C62.1194 56.2064 61.9679 56.2999 61.8519 56.4254C61.7383 56.5485 61.6815 56.7166 61.6815 56.9296C61.6815 57.2208 61.7892 57.441 62.0046 57.5901C62.2224 57.7369 62.4982 57.8103 62.832 57.8103ZM66.7338 58.4353V52.9808H67.5719V58.4353H66.7338ZM67.16 52.0717C66.9966 52.0717 66.8558 52.016 66.7374 51.9048C66.6214 51.7935 66.5634 51.6597 66.5634 51.5035C66.5634 51.3472 66.6214 51.2135 66.7374 51.1022C66.8558 50.9909 66.9966 50.9353 67.16 50.9353C67.3233 50.9353 67.463 50.9909 67.579 51.1022C67.6974 51.2135 67.7566 51.3472 67.7566 51.5035C67.7566 51.6597 67.6974 51.7935 67.579 51.9048C67.463 52.016 67.3233 52.0717 67.16 52.0717ZM69.945 51.1626V58.4353H69.1069V51.1626H69.945ZM75.3436 54.2023L74.5907 54.4154C74.5434 54.2899 74.4735 54.168 74.3812 54.0496C74.2913 53.9289 74.1681 53.8295 74.0119 53.7514C73.8556 53.6732 73.6556 53.6342 73.4118 53.6342C73.0779 53.6342 72.7998 53.7111 72.5772 53.865C72.3571 54.0165 72.247 54.2095 72.247 54.4438C72.247 54.6522 72.3227 54.8167 72.4743 54.9374C72.6258 55.0582 72.8625 55.1588 73.1845 55.2393L73.9941 55.4381C74.4818 55.5565 74.8452 55.7376 75.0843 55.9815C75.3234 56.2229 75.443 56.5343 75.443 56.9154C75.443 57.2279 75.353 57.5073 75.1731 57.7535C74.9956 57.9997 74.747 58.1938 74.4274 58.3359C74.1078 58.4779 73.7361 58.5489 73.3123 58.5489C72.756 58.5489 72.2955 58.4282 71.9309 58.1867C71.5663 57.9452 71.3355 57.5925 71.2385 57.1285L72.0339 56.9296C72.1097 57.2232 72.2529 57.4434 72.4636 57.5901C72.6767 57.7369 72.9548 57.8103 73.2981 57.8103C73.6887 57.8103 73.9989 57.7274 74.2285 57.5617C74.4605 57.3936 74.5765 57.1924 74.5765 56.958C74.5765 56.7686 74.5102 56.61 74.3777 56.4822C74.2451 56.352 74.0415 56.2549 73.7669 56.191L72.8578 55.9779C72.3583 55.8595 71.9913 55.6761 71.7569 55.4275C71.5249 55.1765 71.4089 54.8629 71.4089 54.4864C71.4089 54.1787 71.4953 53.9064 71.6681 53.6697C71.8433 53.4329 72.0813 53.2471 72.3819 53.1121C72.685 52.9772 73.0282 52.9097 73.4118 52.9097C73.9515 52.9097 74.3753 53.0281 74.6831 53.2648C74.9932 53.5016 75.2134 53.8141 75.3436 54.2023Z" fill="#6B7280"/>
<path d="M129.881 58.4353V51.1626H134.27V51.9438H130.761V54.4012H134.043V55.1825H130.761V57.6541H134.327V58.4353H129.881ZM135.744 58.4353V52.9808H136.553V53.833H136.624C136.738 53.5418 136.921 53.3157 137.175 53.1548C137.428 52.9914 137.732 52.9097 138.087 52.9097C138.447 52.9097 138.747 52.9914 138.986 53.1548C139.227 53.3157 139.415 53.5418 139.55 53.833H139.607C139.747 53.5513 139.956 53.3276 140.236 53.1619C140.515 52.9938 140.85 52.9097 141.241 52.9097C141.728 52.9097 142.127 53.0624 142.438 53.3678C142.748 53.6709 142.903 54.1432 142.903 54.7847V58.4353H142.065V54.7847C142.065 54.3823 141.955 54.0946 141.734 53.9218C141.514 53.749 141.255 53.6626 140.957 53.6626C140.573 53.6626 140.276 53.7786 140.065 54.0106C139.855 54.2402 139.749 54.5314 139.749 54.8842V58.4353H138.897V54.6995C138.897 54.3894 138.796 54.1396 138.595 53.9502C138.394 53.7585 138.135 53.6626 137.817 53.6626C137.6 53.6626 137.396 53.7206 137.207 53.8366C137.02 53.9526 136.868 54.1136 136.752 54.3195C136.638 54.5231 136.582 54.7587 136.582 55.0262V58.4353H135.744ZM144.435 60.4808V52.9808H145.245V53.8472H145.344C145.406 53.7525 145.491 53.6318 145.6 53.485C145.711 53.3359 145.87 53.2033 146.076 53.0873C146.284 52.9689 146.566 52.9097 146.921 52.9097C147.38 52.9097 147.785 53.0246 148.135 53.2542C148.486 53.4838 148.759 53.8094 148.956 54.2308C149.152 54.6522 149.25 55.1493 149.25 55.7222C149.25 56.2999 149.152 56.8006 148.956 57.2244C148.759 57.6458 148.487 57.9725 148.139 58.2045C147.791 58.4341 147.39 58.5489 146.935 58.5489C146.585 58.5489 146.304 58.4909 146.093 58.3749C145.883 58.2566 145.721 58.1228 145.607 57.9737C145.493 57.8221 145.406 57.6967 145.344 57.5972H145.273V60.4808H144.435ZM145.259 55.708C145.259 56.12 145.319 56.4834 145.44 56.7982C145.561 57.1107 145.737 57.3558 145.969 57.5333C146.201 57.7085 146.485 57.7961 146.821 57.7961C147.172 57.7961 147.464 57.7038 147.699 57.5191C147.935 57.3321 148.113 57.0811 148.231 56.7663C148.352 56.449 148.412 56.0963 148.412 55.708C148.412 55.3245 148.353 54.9789 148.235 54.6711C148.119 54.361 147.942 54.1159 147.706 53.936C147.471 53.7537 147.176 53.6626 146.821 53.6626C146.48 53.6626 146.194 53.749 145.962 53.9218C145.73 54.0923 145.555 54.3314 145.436 54.6391C145.318 54.9445 145.259 55.3008 145.259 55.708ZM151.367 51.1626V58.4353H150.529V51.1626H151.367ZM155.118 58.5489C154.625 58.5489 154.193 58.4318 153.822 58.1974C153.452 57.963 153.163 57.6351 152.955 57.2137C152.749 56.7923 152.646 56.2999 152.646 55.7364C152.646 55.1683 152.749 54.6723 152.955 54.2485C153.163 53.8247 153.452 53.4957 153.822 53.2613C154.193 53.0269 154.625 52.9097 155.118 52.9097C155.61 52.9097 156.041 53.0269 156.41 53.2613C156.782 53.4957 157.071 53.8247 157.277 54.2485C157.485 54.6723 157.589 55.1683 157.589 55.7364C157.589 56.2999 157.485 56.7923 157.277 57.2137C157.071 57.6351 156.782 57.963 156.41 58.1974C156.041 58.4318 155.61 58.5489 155.118 58.5489ZM155.118 57.7961C155.492 57.7961 155.8 57.7002 156.041 57.5085C156.282 57.3167 156.461 57.0646 156.577 56.7521C156.693 56.4396 156.751 56.101 156.751 55.7364C156.751 55.3719 156.693 55.0321 156.577 54.7173C156.461 54.4024 156.282 54.1479 156.041 53.9538C155.8 53.7596 155.492 53.6626 155.118 53.6626C154.744 53.6626 154.436 53.7596 154.194 53.9538C153.953 54.1479 153.774 54.4024 153.658 54.7173C153.542 55.0321 153.484 55.3719 153.484 55.7364C153.484 56.101 153.542 56.4396 153.658 56.7521C153.774 57.0646 153.953 57.3167 154.194 57.5085C154.436 57.7002 154.744 57.7961 155.118 57.7961ZM159.213 60.4808C159.071 60.4808 158.944 60.4689 158.833 60.4452C158.722 60.4239 158.645 60.4026 158.602 60.3813L158.815 59.6427C159.019 59.6948 159.199 59.7137 159.355 59.6995C159.511 59.6853 159.65 59.6155 159.771 59.49C159.894 59.3669 160.006 59.1668 160.108 58.8898L160.264 58.4637L158.247 52.9808H159.156L160.662 57.3273H160.719L162.224 52.9808H163.134L160.818 59.2308C160.714 59.5125 160.585 59.7457 160.431 59.9303C160.277 60.1174 160.098 60.2559 159.895 60.3458C159.694 60.4358 159.466 60.4808 159.213 60.4808ZM164.24 58.4353V52.9808H165.049V53.833H165.12C165.234 53.5418 165.417 53.3157 165.671 53.1548C165.924 52.9914 166.228 52.9097 166.583 52.9097C166.943 52.9097 167.243 52.9914 167.482 53.1548C167.723 53.3157 167.912 53.5418 168.047 53.833H168.103C168.243 53.5513 168.453 53.3276 168.732 53.1619C169.011 52.9938 169.346 52.9097 169.737 52.9097C170.225 52.9097 170.623 53.0624 170.934 53.3678C171.244 53.6709 171.399 54.1432 171.399 54.7847V58.4353H170.561V54.7847C170.561 54.3823 170.451 54.0946 170.23 53.9218C170.01 53.749 169.751 53.6626 169.453 53.6626C169.069 53.6626 168.772 53.7786 168.561 54.0106C168.351 54.2402 168.245 54.5314 168.245 54.8842V58.4353H167.393V54.6995C167.393 54.3894 167.292 54.1396 167.091 53.9502C166.89 53.7585 166.631 53.6626 166.314 53.6626C166.096 53.6626 165.892 53.7206 165.703 53.8366C165.516 53.9526 165.364 54.1136 165.248 54.3195C165.135 54.5231 165.078 54.7587 165.078 55.0262V58.4353H164.24ZM175.218 58.5489C174.692 58.5489 174.239 58.4329 173.858 58.2009C173.479 57.9666 173.187 57.6398 172.981 57.2208C172.777 56.7994 172.675 56.3094 172.675 55.7506C172.675 55.1919 172.777 54.6995 172.981 54.2734C173.187 53.8449 173.473 53.5111 173.84 53.272C174.21 53.0305 174.64 52.9097 175.133 52.9097C175.417 52.9097 175.697 52.9571 175.974 53.0518C176.251 53.1465 176.504 53.3004 176.731 53.5134C176.958 53.7241 177.139 54.0035 177.274 54.3515C177.409 54.6995 177.477 55.128 177.477 55.637V55.9921H173.272V55.2677H176.624C176.624 54.9599 176.563 54.6853 176.44 54.4438C176.319 54.2023 176.146 54.0118 175.921 53.8721C175.699 53.7324 175.436 53.6626 175.133 53.6626C174.799 53.6626 174.51 53.7454 174.266 53.9112C174.025 54.0745 173.839 54.2876 173.709 54.5504C173.579 54.8131 173.513 55.0949 173.513 55.3955V55.8785C173.513 56.2904 173.585 56.6396 173.727 56.9261C173.871 57.2102 174.071 57.4268 174.327 57.5759C174.582 57.7227 174.879 57.7961 175.218 57.7961C175.438 57.7961 175.637 57.7653 175.815 57.7038C175.995 57.6398 176.15 57.5452 176.28 57.4197C176.41 57.2918 176.511 57.1332 176.582 56.9438L177.391 57.1711C177.306 57.4457 177.163 57.6872 176.962 57.8955C176.76 58.1015 176.512 58.2625 176.216 58.3785C175.92 58.4921 175.587 58.5489 175.218 58.5489ZM179.589 55.1541V58.4353H178.751V52.9808H179.561V53.833H179.632C179.76 53.556 179.954 53.3335 180.214 53.1654C180.475 52.995 180.811 52.9097 181.223 52.9097C181.592 52.9097 181.915 52.9855 182.192 53.137C182.469 53.2862 182.685 53.5134 182.839 53.8188C182.993 54.1219 183.07 54.5054 183.07 54.9694V58.4353H182.232V55.0262C182.232 54.5977 182.12 54.2639 181.898 54.0248C181.675 53.7833 181.37 53.6626 180.982 53.6626C180.714 53.6626 180.475 53.7206 180.264 53.8366C180.056 53.9526 179.891 54.1219 179.771 54.3444C179.65 54.5669 179.589 54.8368 179.589 55.1541ZM186.973 52.9808V53.691H184.146V52.9808H186.973ZM184.97 51.6739H185.808V56.8728C185.808 57.1095 185.843 57.2871 185.911 57.4055C185.982 57.5215 186.072 57.5996 186.181 57.6398C186.293 57.6777 186.41 57.6967 186.533 57.6967C186.625 57.6967 186.701 57.6919 186.76 57.6825C186.819 57.6706 186.867 57.6612 186.902 57.6541L187.073 58.4069C187.016 58.4282 186.936 58.4495 186.835 58.4708C186.733 58.4945 186.604 58.5063 186.448 58.5063C186.211 58.5063 185.979 58.4554 185.752 58.3536C185.527 58.2518 185.34 58.0968 185.191 57.8884C185.044 57.6801 184.97 57.4173 184.97 57.1001V51.6739ZM193.404 58.4353H191.16V51.1626H193.504C194.209 51.1626 194.813 51.3082 195.315 51.5994C195.817 51.8882 196.201 52.3037 196.469 52.8458C196.736 53.3856 196.87 54.0319 196.87 54.7847C196.87 55.5423 196.735 56.1945 196.465 56.7414C196.195 57.2859 195.802 57.705 195.286 57.9985C194.77 58.2897 194.143 58.4353 193.404 58.4353ZM192.041 57.6541H193.347C193.949 57.6541 194.447 57.538 194.843 57.306C195.238 57.074 195.533 56.7438 195.727 56.3153C195.921 55.8868 196.018 55.3766 196.018 54.7847C196.018 54.1976 195.922 53.6922 195.73 53.2684C195.539 52.8423 195.252 52.5156 194.871 52.2883C194.49 52.0586 194.015 51.9438 193.447 51.9438H192.041V57.6541ZM200.521 58.5489C199.995 58.5489 199.542 58.4329 199.161 58.2009C198.782 57.9666 198.49 57.6398 198.284 57.2208C198.08 56.7994 197.978 56.3094 197.978 55.7506C197.978 55.1919 198.08 54.6995 198.284 54.2734C198.49 53.8449 198.776 53.5111 199.143 53.272C199.512 53.0305 199.943 52.9097 200.436 52.9097C200.72 52.9097 201 52.9571 201.277 53.0518C201.554 53.1465 201.806 53.3004 202.034 53.5134C202.261 53.7241 202.442 54.0035 202.577 54.3515C202.712 54.6995 202.779 55.128 202.779 55.637V55.9921H198.575V55.2677H201.927C201.927 54.9599 201.865 54.6853 201.742 54.4438C201.622 54.2023 201.449 54.0118 201.224 53.8721C201.001 53.7324 200.739 53.6626 200.436 53.6626C200.102 53.6626 199.813 53.7454 199.569 53.9112C199.328 54.0745 199.142 54.2876 199.012 54.5504C198.881 54.8131 198.816 55.0949 198.816 55.3955V55.8785C198.816 56.2904 198.887 56.6396 199.029 56.9261C199.174 57.2102 199.374 57.4268 199.629 57.5759C199.885 57.7227 200.182 57.7961 200.521 57.7961C200.741 57.7961 200.94 57.7653 201.117 57.7038C201.297 57.6398 201.452 57.5452 201.583 57.4197C201.713 57.2918 201.813 57.1332 201.884 56.9438L202.694 57.1711C202.609 57.4457 202.466 57.6872 202.264 57.8955C202.063 58.1015 201.815 58.2625 201.519 58.3785C201.223 58.4921 200.89 58.5489 200.521 58.5489ZM206.426 52.9808V53.691H203.6V52.9808H206.426ZM204.423 51.6739H205.262V56.8728C205.262 57.1095 205.296 57.2871 205.365 57.4055C205.436 57.5215 205.526 57.5996 205.634 57.6398C205.746 57.6777 205.863 57.6967 205.986 57.6967C206.078 57.6967 206.154 57.6919 206.213 57.6825C206.272 57.6706 206.32 57.6612 206.355 57.6541L206.526 58.4069C206.469 58.4282 206.39 58.4495 206.288 58.4708C206.186 58.4945 206.057 58.5063 205.901 58.5063C205.664 58.5063 205.432 58.4554 205.205 58.3536C204.98 58.2518 204.793 58.0968 204.644 57.8884C204.497 57.6801 204.423 57.4173 204.423 57.1001V51.6739ZM209.292 58.5631C208.946 58.5631 208.633 58.498 208.351 58.3678C208.069 58.2353 207.846 58.0447 207.68 57.7961C207.514 57.5452 207.431 57.2421 207.431 56.887C207.431 56.5745 207.493 56.3212 207.616 56.1271C207.739 55.9306 207.904 55.7767 208.11 55.6654C208.316 55.5541 208.543 55.4713 208.791 55.4168C209.042 55.36 209.294 55.315 209.548 55.2819C209.879 55.2393 210.148 55.2073 210.354 55.186C210.562 55.1623 210.714 55.1233 210.808 55.0688C210.905 55.0144 210.954 54.9197 210.954 54.7847V54.7563C210.954 54.4059 210.858 54.1337 210.666 53.9396C210.477 53.7454 210.189 53.6484 209.803 53.6484C209.403 53.6484 209.09 53.736 208.862 53.9112C208.635 54.0863 208.475 54.2734 208.383 54.4722L207.588 54.1881C207.73 53.8567 207.919 53.5987 208.156 53.414C208.395 53.227 208.655 53.0968 208.937 53.0234C209.221 52.9476 209.5 52.9097 209.775 52.9097C209.95 52.9097 210.151 52.931 210.379 52.9737C210.608 53.0139 210.83 53.0979 211.043 53.2258C211.258 53.3536 211.437 53.5466 211.579 53.8046C211.721 54.0627 211.792 54.4083 211.792 54.8416V58.4353H210.954V57.6967H210.911C210.855 57.815 210.76 57.9417 210.627 58.0766C210.495 58.2116 210.318 58.3264 210.098 58.4211C209.878 58.5158 209.609 58.5631 209.292 58.5631ZM209.42 57.8103C209.751 57.8103 210.031 57.7452 210.258 57.615C210.488 57.4848 210.66 57.3167 210.776 57.1107C210.895 56.9048 210.954 56.6881 210.954 56.4609V55.6938C210.919 55.7364 210.84 55.7755 210.72 55.811C210.601 55.8442 210.464 55.8737 210.308 55.8998C210.154 55.9235 210.003 55.9448 209.857 55.9637C209.712 55.9803 209.595 55.9945 209.505 56.0063C209.287 56.0347 209.084 56.0809 208.894 56.1448C208.707 56.2064 208.556 56.2999 208.44 56.4254C208.326 56.5485 208.269 56.7166 208.269 56.9296C208.269 57.2208 208.377 57.441 208.593 57.5901C208.81 57.7369 209.086 57.8103 209.42 57.8103ZM213.322 58.4353V52.9808H214.16V58.4353H213.322ZM213.748 52.0717C213.585 52.0717 213.444 52.016 213.325 51.9048C213.209 51.7935 213.151 51.6597 213.151 51.5035C213.151 51.3472 213.209 51.2135 213.325 51.1022C213.444 50.9909 213.585 50.9353 213.748 50.9353C213.911 50.9353 214.051 50.9909 214.167 51.1022C214.285 51.2135 214.344 51.3472 214.344 51.5035C214.344 51.6597 214.285 51.7935 214.167 51.9048C214.051 52.016 213.911 52.0717 213.748 52.0717ZM216.533 51.1626V58.4353H215.695V51.1626H216.533ZM221.931 54.2023L221.179 54.4154C221.131 54.2899 221.061 54.168 220.969 54.0496C220.879 53.9289 220.756 53.8295 220.6 53.7514C220.444 53.6732 220.243 53.6342 220 53.6342C219.666 53.6342 219.388 53.7111 219.165 53.865C218.945 54.0165 218.835 54.2095 218.835 54.4438C218.835 54.6522 218.911 54.8167 219.062 54.9374C219.214 55.0582 219.45 55.1588 219.772 55.2393L220.582 55.4381C221.07 55.5565 221.433 55.7376 221.672 55.9815C221.911 56.2229 222.031 56.5343 222.031 56.9154C222.031 57.2279 221.941 57.5073 221.761 57.7535C221.583 57.9997 221.335 58.1938 221.015 58.3359C220.696 58.4779 220.324 58.5489 219.9 58.5489C219.344 58.5489 218.883 58.4282 218.519 58.1867C218.154 57.9452 217.923 57.5925 217.826 57.1285L218.622 56.9296C218.698 57.2232 218.841 57.4434 219.051 57.5901C219.265 57.7369 219.543 57.8103 219.886 57.8103C220.277 57.8103 220.587 57.7274 220.816 57.5617C221.048 57.3936 221.164 57.1924 221.164 56.958C221.164 56.7686 221.098 56.61 220.966 56.4822C220.833 56.352 220.629 56.2549 220.355 56.191L219.446 55.9779C218.946 55.8595 218.579 55.6761 218.345 55.4275C218.113 55.1765 217.997 54.8629 217.997 54.4864C217.997 54.1787 218.083 53.9064 218.256 53.6697C218.431 53.4329 218.669 53.2471 218.97 53.1121C219.273 52.9772 219.616 52.9097 220 52.9097C220.539 52.9097 220.963 53.0281 221.271 53.2648C221.581 53.5016 221.801 53.8141 221.931 54.2023Z" fill="#6B7280"/>
</svg>
