<svg width="387" height="57" viewBox="0 0 387 57" fill="none" xmlns="http://www.w3.org/2000/svg">
<path d="M4.34 15.098C3.65867 15.098 3.04267 14.9813 2.492 14.748C1.95067 14.5147 1.52133 14.1787 1.204 13.74C0.886667 13.3013 0.723333 12.7833 0.714 12.186H2.814C2.842 12.5873 2.982 12.9047 3.234 13.138C3.49533 13.3713 3.85 13.488 4.298 13.488C4.75533 13.488 5.11467 13.3807 5.376 13.166C5.63733 12.942 5.768 12.6527 5.768 12.298C5.768 12.0087 5.67933 11.7707 5.502 11.584C5.32467 11.3973 5.10067 11.2527 4.83 11.15C4.56867 11.038 4.20467 10.9167 3.738 10.786C3.10333 10.5993 2.58533 10.4173 2.184 10.24C1.792 10.0533 1.45133 9.778 1.162 9.414C0.882 9.04067 0.742 8.546 0.742 7.93C0.742 7.35133 0.886667 6.84733 1.176 6.418C1.46533 5.98867 1.87133 5.662 2.394 5.438C2.91667 5.20467 3.514 5.088 4.186 5.088C5.194 5.088 6.01067 5.33533 6.636 5.83C7.27067 6.31533 7.62067 6.99667 7.686 7.874H5.53C5.51133 7.538 5.36667 7.26267 5.096 7.048C4.83467 6.824 4.48467 6.712 4.046 6.712C3.66333 6.712 3.35533 6.81 3.122 7.006C2.898 7.202 2.786 7.48667 2.786 7.86C2.786 8.12133 2.87 8.34067 3.038 8.518C3.21533 8.686 3.43 8.826 3.682 8.938C3.94333 9.04067 4.30733 9.162 4.774 9.302C5.40867 9.48867 5.92667 9.67533 6.328 9.862C6.72933 10.0487 7.07467 10.3287 7.364 10.702C7.65333 11.0753 7.798 11.5653 7.798 12.172C7.798 12.6947 7.66267 13.18 7.392 13.628C7.12133 14.076 6.72467 14.4353 6.202 14.706C5.67933 14.9673 5.05867 15.098 4.34 15.098ZM11.7793 8.854V12.606C11.7793 12.8673 11.8399 13.0587 11.9613 13.18C12.0919 13.292 12.3066 13.348 12.6053 13.348H13.5153V15H12.2833C10.6313 15 9.80525 14.1973 9.80525 12.592V8.854H8.88125V7.244H9.80525V5.326H11.7793V7.244H13.5153V8.854H11.7793ZM22.135 10.954C22.135 11.234 22.1163 11.486 22.079 11.71H16.409C16.4557 12.27 16.6517 12.7087 16.997 13.026C17.3423 13.3433 17.767 13.502 18.271 13.502C18.999 13.502 19.517 13.1893 19.825 12.564H21.939C21.715 13.3107 21.2857 13.9267 20.651 14.412C20.0163 14.888 19.237 15.126 18.313 15.126C17.5663 15.126 16.8943 14.9627 16.297 14.636C15.709 14.3 15.247 13.8287 14.911 13.222C14.5843 12.6153 14.421 11.9153 14.421 11.122C14.421 10.3193 14.5843 9.61467 14.911 9.008C15.2377 8.40133 15.695 7.93467 16.283 7.608C16.871 7.28133 17.5477 7.118 18.313 7.118C19.0503 7.118 19.7083 7.27667 20.287 7.594C20.875 7.91133 21.3277 8.364 21.645 8.952C21.9717 9.53067 22.135 10.198 22.135 10.954ZM20.105 10.394C20.0957 9.89 19.9137 9.48867 19.559 9.19C19.2043 8.882 18.7703 8.728 18.257 8.728C17.7717 8.728 17.361 8.87733 17.025 9.176C16.6983 9.46533 16.4977 9.87133 16.423 10.394H20.105ZM25.5256 8.364C25.7776 8.00933 26.1229 7.71533 26.5616 7.482C27.0096 7.23933 27.5183 7.118 28.0876 7.118C28.7503 7.118 29.3476 7.28133 29.8796 7.608C30.4209 7.93467 30.8456 8.40133 31.1536 9.008C31.4709 9.60533 31.6296 10.3007 31.6296 11.094C31.6296 11.8873 31.4709 12.592 31.1536 13.208C30.8456 13.8147 30.4209 14.286 29.8796 14.622C29.3476 14.958 28.7503 15.126 28.0876 15.126C27.5183 15.126 27.0143 15.0093 26.5756 14.776C26.1463 14.5427 25.7963 14.2487 25.5256 13.894V18.696H23.5656V7.244H25.5256V8.364ZM29.6276 11.094C29.6276 10.6273 29.5296 10.226 29.3336 9.89C29.1469 9.54467 28.8949 9.28333 28.5776 9.106C28.2696 8.92867 27.9336 8.84 27.5696 8.84C27.2149 8.84 26.8789 8.93333 26.5616 9.12C26.2536 9.29733 26.0016 9.55867 25.8056 9.904C25.6189 10.2493 25.5256 10.6553 25.5256 11.122C25.5256 11.5887 25.6189 11.9947 25.8056 12.34C26.0016 12.6853 26.2536 12.9513 26.5616 13.138C26.8789 13.3153 27.2149 13.404 27.5696 13.404C27.9336 13.404 28.2696 13.3107 28.5776 13.124C28.8949 12.9373 29.1469 12.6713 29.3336 12.326C29.5296 11.9807 29.6276 11.57 29.6276 11.094ZM36.7818 12.788C37.6778 12.0413 38.3918 11.4207 38.9238 10.926C39.4558 10.422 39.8992 9.89933 40.2538 9.358C40.6085 8.81667 40.7858 8.28467 40.7858 7.762C40.7858 7.286 40.6738 6.91267 40.4498 6.642C40.2258 6.37133 39.8805 6.236 39.4138 6.236C38.9472 6.236 38.5878 6.39467 38.3358 6.712C38.0838 7.02 37.9532 7.44467 37.9438 7.986H36.0398C36.0772 6.866 36.4085 6.01667 37.0338 5.438C37.6685 4.85933 38.4712 4.57 39.4418 4.57C40.5058 4.57 41.3225 4.85467 41.8918 5.424C42.4612 5.984 42.7458 6.726 42.7458 7.65C42.7458 8.378 42.5498 9.07333 42.1578 9.736C41.7658 10.3987 41.3178 10.9773 40.8138 11.472C40.3098 11.9573 39.6518 12.5453 38.8398 13.236H42.9698V14.86H36.0538V13.404L36.7818 12.788ZM51.2088 15.126C50.4622 15.126 49.7902 14.9627 49.1928 14.636C48.5955 14.3 48.1242 13.8287 47.7788 13.222C47.4428 12.6153 47.2748 11.9153 47.2748 11.122C47.2748 10.3287 47.4475 9.62867 47.7928 9.022C48.1475 8.41533 48.6282 7.94867 49.2348 7.622C49.8415 7.286 50.5182 7.118 51.2648 7.118C52.0115 7.118 52.6882 7.286 53.2948 7.622C53.9015 7.94867 54.3775 8.41533 54.7228 9.022C55.0775 9.62867 55.2548 10.3287 55.2548 11.122C55.2548 11.9153 55.0728 12.6153 54.7088 13.222C54.3542 13.8287 53.8688 14.3 53.2528 14.636C52.6462 14.9627 51.9648 15.126 51.2088 15.126ZM51.2088 13.418C51.5635 13.418 51.8948 13.334 52.2028 13.166C52.5202 12.9887 52.7722 12.7273 52.9588 12.382C53.1455 12.0367 53.2388 11.6167 53.2388 11.122C53.2388 10.3847 53.0428 9.82 52.6508 9.428C52.2682 9.02667 51.7968 8.826 51.2368 8.826C50.6768 8.826 50.2055 9.02667 49.8228 9.428C49.4495 9.82 49.2628 10.3847 49.2628 11.122C49.2628 11.8593 49.4448 12.4287 49.8088 12.83C50.1822 13.222 50.6488 13.418 51.2088 13.418ZM60.2486 8.854H58.8906V15H56.9026V8.854H56.0206V7.244H56.9026V6.852C56.9026 5.9 57.1732 5.2 57.7146 4.752C58.2559 4.304 59.0726 4.094 60.1646 4.122V5.774C59.6886 5.76467 59.3572 5.844 59.1706 6.012C58.9839 6.18 58.8906 6.48333 58.8906 6.922V7.244H60.2486V8.854ZM65.2467 12.788C66.1427 12.0413 66.8567 11.4207 67.3887 10.926C67.9207 10.422 68.364 9.89933 68.7187 9.358C69.0733 8.81667 69.2507 8.28467 69.2507 7.762C69.2507 7.286 69.1387 6.91267 68.9147 6.642C68.6907 6.37133 68.3453 6.236 67.8787 6.236C67.412 6.236 67.0527 6.39467 66.8007 6.712C66.5487 7.02 66.418 7.44467 66.4087 7.986H64.5047C64.542 6.866 64.8733 6.01667 65.4987 5.438C66.1333 4.85933 66.936 4.57 67.9067 4.57C68.9707 4.57 69.7873 4.85467 70.3567 5.424C70.926 5.984 71.2107 6.726 71.2107 7.65C71.2107 8.378 71.0147 9.07333 70.6227 9.736C70.2307 10.3987 69.7827 10.9773 69.2787 11.472C68.7747 11.9573 68.1167 12.5453 67.3047 13.236H71.4347V14.86H64.5187V13.404L65.2467 12.788Z" fill="#369F80"/>
<line x1="23" y1="44" x2="376" y2="44" stroke="#312E81" stroke-width="2"/>
<circle cx="12" cy="45" r="10.8083" stroke="#0800A5" stroke-width="2.38333"/>
<circle cx="12" cy="45" r="3.75" fill="#0800A5"/>
<circle cx="374" cy="45" r="10.8083" stroke="#0800A5" stroke-width="2.38333"/>
<circle cx="374" cy="45" r="3.75" fill="#0800A5"/>
</svg>
