<svg width="223" height="65" viewBox="0 0 223 65" fill="none" xmlns="http://www.w3.org/2000/svg">
<circle cx="44.8333" cy="19.0667" r="17.875" stroke="#0800A5" stroke-width="2.38333"/>
<circle cx="44.8333" cy="19.0667" r="5.95833" fill="#0800A5"/>
<rect x="63.9" y="17.875" width="95.3333" height="2.38333" fill="#D1D5DB"/>
<circle cx="178.3" cy="19.0667" r="17.875" stroke="#9CA3AF" stroke-width="2.38333"/>
<circle cx="178.3" cy="19.0667" r="5.95833" fill="#D1D5DB"/>
<path d="M0.880682 58.1334V50.8606H3.33807C3.90862 50.8606 4.375 50.9636 4.73722 51.1696C5.1018 51.3732 5.37169 51.649 5.54688 51.997C5.72206 52.345 5.80966 52.7333 5.80966 53.1618C5.80966 53.5903 5.72206 53.9797 5.54688 54.3301C5.37405 54.6805 5.10653 54.9598 4.74432 55.1682C4.3821 55.3741 3.91809 55.4771 3.35227 55.4771H1.59091V54.6959H3.32386C3.71449 54.6959 4.02817 54.6284 4.26491 54.4934C4.50166 54.3585 4.6733 54.1762 4.77983 53.9466C4.88873 53.7146 4.94318 53.453 4.94318 53.1618C4.94318 52.8706 4.88873 52.6102 4.77983 52.3805C4.6733 52.1509 4.50047 51.971 4.26136 51.8407C4.02225 51.7082 3.70502 51.6419 3.30966 51.6419H1.76136V58.1334H0.880682ZM9.34304 58.247C8.81747 58.247 8.36411 58.131 7.98295 57.899C7.60417 57.6646 7.31179 57.3379 7.10582 56.9189C6.90223 56.4975 6.80043 56.0074 6.80043 55.4487C6.80043 54.89 6.90223 54.3976 7.10582 53.9714C7.31179 53.5429 7.59825 53.2091 7.9652 52.97C8.33452 52.7285 8.76539 52.6078 9.25781 52.6078C9.5419 52.6078 9.82244 52.6551 10.0994 52.7498C10.3764 52.8445 10.6286 52.9984 10.8558 53.2115C11.0831 53.4222 11.2642 53.7015 11.3991 54.0496C11.5341 54.3976 11.6016 54.8261 11.6016 55.3351V55.6902H7.39702V54.9657H10.7493C10.7493 54.658 10.6877 54.3834 10.5646 54.1419C10.4439 53.9004 10.2711 53.7098 10.0462 53.5702C9.82363 53.4305 9.56084 53.3606 9.25781 53.3606C8.92401 53.3606 8.63518 53.4435 8.39134 53.6092C8.14986 53.7726 7.96402 53.9856 7.83381 54.2484C7.7036 54.5112 7.63849 54.7929 7.63849 55.0936V55.5765C7.63849 55.9885 7.70952 56.3377 7.85156 56.6241C7.99598 56.9082 8.19602 57.1248 8.4517 57.274C8.70739 57.4208 9.0045 57.4942 9.34304 57.4942C9.56321 57.4942 9.76207 57.4634 9.93963 57.4018C10.1196 57.3379 10.2746 57.2432 10.4048 57.1177C10.535 56.9899 10.6357 56.8313 10.7067 56.6419L11.5163 56.8692C11.4311 57.1438 11.2879 57.3853 11.0866 57.5936C10.8854 57.7996 10.6368 57.9605 10.3409 58.0765C10.045 58.1902 9.71236 58.247 9.34304 58.247ZM12.8764 58.1334V52.6788H13.6861V53.5027H13.7429C13.8423 53.2328 14.0223 53.0138 14.2827 52.8457C14.5431 52.6776 14.8366 52.5936 15.1634 52.5936C15.2249 52.5936 15.3018 52.5948 15.3942 52.5971C15.4865 52.5995 15.5563 52.6031 15.6037 52.6078V53.4601C15.5753 53.453 15.5102 53.4423 15.4084 53.4281C15.3089 53.4115 15.2036 53.4032 15.0923 53.4032C14.8272 53.4032 14.5904 53.4589 14.3821 53.5702C14.1761 53.6791 14.0128 53.8306 13.892 54.0247C13.7737 54.2165 13.7145 54.4354 13.7145 54.6817V58.1334H12.8764ZM20.4608 53.9004L19.7079 54.1135C19.6606 53.988 19.5907 53.8661 19.4984 53.7477C19.4084 53.627 19.2853 53.5275 19.1291 53.4494C18.9728 53.3713 18.7728 53.3322 18.5289 53.3322C18.1951 53.3322 17.917 53.4092 17.6944 53.563C17.4743 53.7146 17.3642 53.9075 17.3642 54.1419C17.3642 54.3502 17.4399 54.5148 17.5914 54.6355C17.743 54.7562 17.9797 54.8568 18.3017 54.9373L19.1113 55.1362C19.599 55.2546 19.9624 55.4357 20.2015 55.6795C20.4406 55.921 20.5602 56.2323 20.5602 56.6135C20.5602 56.926 20.4702 57.2053 20.2903 57.4515C20.1127 57.6978 19.8642 57.8919 19.5446 58.0339C19.225 58.176 18.8533 58.247 18.4295 58.247C17.8732 58.247 17.4127 58.1263 17.0481 57.8848C16.6835 57.6433 16.4527 57.2906 16.3556 56.8265L17.1511 56.6277C17.2269 56.9212 17.3701 57.1414 17.5808 57.2882C17.7939 57.435 18.072 57.5084 18.4153 57.5084C18.8059 57.5084 19.1161 57.4255 19.3457 57.2598C19.5777 57.0917 19.6937 56.8905 19.6937 56.6561C19.6937 56.4667 19.6274 56.3081 19.4949 56.1802C19.3623 56.05 19.1587 55.953 18.8841 55.889L17.975 55.676C17.4754 55.5576 17.1085 55.3741 16.8741 55.1255C16.6421 54.8746 16.5261 54.5609 16.5261 54.1845C16.5261 53.8767 16.6125 53.6045 16.7853 53.3677C16.9605 53.131 17.1984 52.9452 17.4991 52.8102C17.8021 52.6753 18.1454 52.6078 18.5289 52.6078C19.0687 52.6078 19.4925 52.7262 19.8002 52.9629C20.1104 53.1996 20.3306 53.5121 20.4608 53.9004ZM24.0376 58.247C23.5452 58.247 23.1132 58.1298 22.7415 57.8954C22.3722 57.6611 22.0833 57.3332 21.875 56.9118C21.669 56.4904 21.5661 55.9979 21.5661 55.4345C21.5661 54.8663 21.669 54.3703 21.875 53.9466C22.0833 53.5228 22.3722 53.1937 22.7415 52.9594C23.1132 52.725 23.5452 52.6078 24.0376 52.6078C24.5301 52.6078 24.9609 52.725 25.3303 52.9594C25.7019 53.1937 25.9908 53.5228 26.1967 53.9466C26.4051 54.3703 26.5092 54.8663 26.5092 55.4345C26.5092 55.9979 26.4051 56.4904 26.1967 56.9118C25.9908 57.3332 25.7019 57.6611 25.3303 57.8954C24.9609 58.1298 24.5301 58.247 24.0376 58.247ZM24.0376 57.4942C24.4117 57.4942 24.7195 57.3983 24.9609 57.2065C25.2024 57.0148 25.3812 56.7626 25.4972 56.4501C25.6132 56.1376 25.6712 55.7991 25.6712 55.4345C25.6712 55.0699 25.6132 54.7302 25.4972 54.4153C25.3812 54.1005 25.2024 53.846 24.9609 53.6518C24.7195 53.4577 24.4117 53.3606 24.0376 53.3606C23.6636 53.3606 23.3558 53.4577 23.1143 53.6518C22.8729 53.846 22.6941 54.1005 22.5781 54.4153C22.4621 54.7302 22.4041 55.0699 22.4041 55.4345C22.4041 55.7991 22.4621 56.1376 22.5781 56.4501C22.6941 56.7626 22.8729 57.0148 23.1143 57.2065C23.3558 57.3983 23.6636 57.4942 24.0376 57.4942ZM28.6266 54.8521V58.1334H27.7885V52.6788H28.5982V53.5311H28.6692C28.7971 53.2541 28.9912 53.0316 29.2516 52.8635C29.512 52.693 29.8482 52.6078 30.2601 52.6078C30.6294 52.6078 30.9526 52.6836 31.2296 52.8351C31.5066 52.9842 31.722 53.2115 31.8759 53.5169C32.0298 53.8199 32.1067 54.2034 32.1067 54.6675V58.1334H31.2686V54.7243C31.2686 54.2958 31.1574 53.962 30.9348 53.7229C30.7123 53.4814 30.4069 53.3606 30.0186 53.3606C29.7511 53.3606 29.512 53.4186 29.3013 53.5346C29.093 53.6506 28.9284 53.8199 28.8077 54.0425C28.687 54.265 28.6266 54.5349 28.6266 54.8521ZM35.2433 58.2612C34.8976 58.2612 34.5839 58.1961 34.3022 58.0659C34.0205 57.9333 33.7968 57.7427 33.631 57.4942C33.4653 57.2432 33.3825 56.9402 33.3825 56.5851C33.3825 56.2726 33.444 56.0193 33.5671 55.8251C33.6902 55.6286 33.8548 55.4747 34.0607 55.3635C34.2667 55.2522 34.494 55.1693 34.7425 55.1149C34.9935 55.0581 35.2456 55.0131 35.4989 54.98C35.8304 54.9373 36.0991 54.9054 36.305 54.8841C36.5134 54.8604 36.6649 54.8213 36.7596 54.7669C36.8567 54.7124 36.9052 54.6177 36.9052 54.4828V54.4544C36.9052 54.104 36.8093 53.8318 36.6175 53.6376C36.4281 53.4435 36.1405 53.3464 35.7546 53.3464C35.3545 53.3464 35.0408 53.434 34.8136 53.6092C34.5863 53.7844 34.4265 53.9714 34.3342 54.1703L33.5387 53.8862C33.6808 53.5548 33.8701 53.2967 34.1069 53.1121C34.346 52.925 34.6064 52.7948 34.8881 52.7214C35.1722 52.6457 35.4516 52.6078 35.7262 52.6078C35.9014 52.6078 36.1026 52.6291 36.3299 52.6717C36.5595 52.712 36.7809 52.796 36.994 52.9238C37.2094 53.0517 37.3881 53.2446 37.5302 53.5027C37.6722 53.7607 37.7433 54.1064 37.7433 54.5396V58.1334H36.9052V57.3947H36.8626C36.8058 57.5131 36.7111 57.6398 36.5785 57.7747C36.4459 57.9096 36.2695 58.0245 36.0494 58.1192C35.8292 58.2139 35.5605 58.2612 35.2433 58.2612ZM35.3711 57.5084C35.7025 57.5084 35.9819 57.4433 36.2092 57.313C36.4388 57.1828 36.6116 57.0148 36.7276 56.8088C36.846 56.6028 36.9052 56.3862 36.9052 56.1589V55.3919C36.8697 55.4345 36.7915 55.4736 36.6708 55.5091C36.5524 55.5422 36.4151 55.5718 36.2589 55.5979C36.105 55.6215 35.9547 55.6428 35.8079 55.6618C35.6635 55.6783 35.5463 55.6925 35.4563 55.7044C35.2385 55.7328 35.0349 55.779 34.8455 55.8429C34.6585 55.9044 34.507 55.9979 34.391 56.1234C34.2773 56.2465 34.2205 56.4146 34.2205 56.6277C34.2205 56.9189 34.3282 57.139 34.5437 57.2882C34.7615 57.435 35.0373 57.5084 35.3711 57.5084ZM40.111 50.8606V58.1334H39.2729V50.8606H40.111ZM46.8164 58.1334H44.5721V50.8606H46.9158C47.6213 50.8606 48.225 51.0062 48.7269 51.2974C49.2288 51.5862 49.6135 52.0017 49.881 52.5439C50.1486 53.0836 50.2823 53.73 50.2823 54.4828C50.2823 55.2404 50.1474 55.8926 49.8775 56.4395C49.6076 56.984 49.2146 57.403 48.6985 57.6966C48.1824 57.9878 47.555 58.1334 46.8164 58.1334ZM45.4528 57.3521H46.7596C47.3609 57.3521 47.8593 57.2361 48.2546 57.0041C48.65 56.7721 48.9447 56.4418 49.1388 56.0133C49.333 55.5848 49.43 55.0746 49.43 54.4828C49.43 53.8957 49.3342 53.3902 49.1424 52.9665C48.9506 52.5403 48.6642 52.2136 48.283 51.9863C47.9019 51.7567 47.4272 51.6419 46.859 51.6419H45.4528V57.3521ZM53.9329 58.247C53.4073 58.247 52.954 58.131 52.5728 57.899C52.194 57.6646 51.9016 57.3379 51.6957 56.9189C51.4921 56.4975 51.3903 56.0074 51.3903 55.4487C51.3903 54.89 51.4921 54.3976 51.6957 53.9714C51.9016 53.5429 52.1881 53.2091 52.555 52.97C52.9244 52.7285 53.3552 52.6078 53.8477 52.6078C54.1317 52.6078 54.4123 52.6551 54.6893 52.7498C54.9663 52.8445 55.2184 52.9984 55.4457 53.2115C55.6729 53.4222 55.854 53.7015 55.989 54.0496C56.1239 54.3976 56.1914 54.8261 56.1914 55.3351V55.6902H51.9869V54.9657H55.3391C55.3391 54.658 55.2776 54.3834 55.1545 54.1419C55.0337 53.9004 54.8609 53.7098 54.636 53.5702C54.4135 53.4305 54.1507 53.3606 53.8477 53.3606C53.5138 53.3606 53.225 53.4435 52.9812 53.6092C52.7397 53.7726 52.5539 53.9856 52.4237 54.2484C52.2934 54.5112 52.2283 54.7929 52.2283 55.0936V55.5765C52.2283 55.9885 52.2994 56.3377 52.4414 56.6241C52.5858 56.9082 52.7859 57.1248 53.0415 57.274C53.2972 57.4208 53.5943 57.4942 53.9329 57.4942C54.1531 57.4942 54.3519 57.4634 54.5295 57.4018C54.7094 57.3379 54.8645 57.2432 54.9947 57.1177C55.1249 56.9899 55.2255 56.8313 55.2965 56.6419L56.1062 56.8692C56.021 57.1438 55.8777 57.3853 55.6765 57.5936C55.4753 57.7996 55.2267 57.9605 54.9308 58.0765C54.6348 58.1902 54.3022 58.247 53.9329 58.247ZM59.8384 52.6788V53.389H57.0117V52.6788H59.8384ZM57.8356 51.372H58.6737V56.5709C58.6737 56.8076 58.708 56.9852 58.7766 57.1035C58.8477 57.2195 58.9376 57.2977 59.0465 57.3379C59.1578 57.3758 59.275 57.3947 59.3981 57.3947C59.4904 57.3947 59.5662 57.39 59.6254 57.3805C59.6845 57.3687 59.7319 57.3592 59.7674 57.3521L59.9379 58.105C59.881 58.1263 59.8017 58.1476 59.6999 58.1689C59.5981 58.1925 59.4691 58.2044 59.3129 58.2044C59.0761 58.2044 58.8441 58.1535 58.6168 58.0517C58.3919 57.9499 58.2049 57.7948 58.0558 57.5865C57.909 57.3782 57.8356 57.1154 57.8356 56.7981V51.372ZM62.7042 58.2612C62.3585 58.2612 62.0449 58.1961 61.7631 58.0659C61.4814 57.9333 61.2577 57.7427 61.092 57.4942C60.9263 57.2432 60.8434 56.9402 60.8434 56.5851C60.8434 56.2726 60.9049 56.0193 61.0281 55.8251C61.1512 55.6286 61.3157 55.4747 61.5217 55.3635C61.7276 55.2522 61.9549 55.1693 62.2035 55.1149C62.4544 55.0581 62.7066 55.0131 62.9599 54.98C63.2913 54.9373 63.56 54.9054 63.766 54.8841C63.9743 54.8604 64.1258 54.8213 64.2205 54.7669C64.3176 54.7124 64.3661 54.6177 64.3661 54.4828V54.4544C64.3661 54.104 64.2702 53.8318 64.0785 53.6376C63.8891 53.4435 63.6014 53.3464 63.2156 53.3464C62.8155 53.3464 62.5018 53.434 62.2745 53.6092C62.0472 53.7844 61.8874 53.9714 61.7951 54.1703L60.9996 53.8862C61.1417 53.5548 61.3311 53.2967 61.5678 53.1121C61.8069 52.925 62.0674 52.7948 62.3491 52.7214C62.6332 52.6457 62.9125 52.6078 63.1871 52.6078C63.3623 52.6078 63.5636 52.6291 63.7908 52.6717C64.0205 52.712 64.2418 52.796 64.4549 52.9238C64.6703 53.0517 64.8491 53.2446 64.9911 53.5027C65.1332 53.7607 65.2042 54.1064 65.2042 54.5396V58.1334H64.3661V57.3947H64.3235C64.2667 57.5131 64.172 57.6398 64.0394 57.7747C63.9068 57.9096 63.7305 58.0245 63.5103 58.1192C63.2901 58.2139 63.0214 58.2612 62.7042 58.2612ZM62.832 57.5084C63.1635 57.5084 63.4428 57.4433 63.6701 57.313C63.8997 57.1828 64.0726 57.0148 64.1886 56.8088C64.3069 56.6028 64.3661 56.3862 64.3661 56.1589V55.3919C64.3306 55.4345 64.2525 55.4736 64.1317 55.5091C64.0134 55.5422 63.8761 55.5718 63.7198 55.5979C63.5659 55.6215 63.4156 55.6428 63.2688 55.6618C63.1244 55.6783 63.0072 55.6925 62.9173 55.7044C62.6995 55.7328 62.4959 55.779 62.3065 55.8429C62.1194 55.9044 61.9679 55.9979 61.8519 56.1234C61.7383 56.2465 61.6815 56.4146 61.6815 56.6277C61.6815 56.9189 61.7892 57.139 62.0046 57.2882C62.2224 57.435 62.4982 57.5084 62.832 57.5084ZM66.7338 58.1334V52.6788H67.5719V58.1334H66.7338ZM67.16 51.7697C66.9966 51.7697 66.8558 51.7141 66.7374 51.6028C66.6214 51.4916 66.5634 51.3578 66.5634 51.2015C66.5634 51.0453 66.6214 50.9115 66.7374 50.8003C66.8558 50.689 66.9966 50.6334 67.16 50.6334C67.3233 50.6334 67.463 50.689 67.579 50.8003C67.6974 50.9115 67.7566 51.0453 67.7566 51.2015C67.7566 51.3578 67.6974 51.4916 67.579 51.6028C67.463 51.7141 67.3233 51.7697 67.16 51.7697ZM69.945 50.8606V58.1334H69.1069V50.8606H69.945ZM75.3436 53.9004L74.5907 54.1135C74.5434 53.988 74.4735 53.8661 74.3812 53.7477C74.2913 53.627 74.1681 53.5275 74.0119 53.4494C73.8556 53.3713 73.6556 53.3322 73.4118 53.3322C73.0779 53.3322 72.7998 53.4092 72.5772 53.563C72.3571 53.7146 72.247 53.9075 72.247 54.1419C72.247 54.3502 72.3227 54.5148 72.4743 54.6355C72.6258 54.7562 72.8625 54.8568 73.1845 54.9373L73.9941 55.1362C74.4818 55.2546 74.8452 55.4357 75.0843 55.6795C75.3234 55.921 75.443 56.2323 75.443 56.6135C75.443 56.926 75.353 57.2053 75.1731 57.4515C74.9956 57.6978 74.747 57.8919 74.4274 58.0339C74.1078 58.176 73.7361 58.247 73.3123 58.247C72.756 58.247 72.2955 58.1263 71.9309 57.8848C71.5663 57.6433 71.3355 57.2906 71.2385 56.8265L72.0339 56.6277C72.1097 56.9212 72.2529 57.1414 72.4636 57.2882C72.6767 57.435 72.9548 57.5084 73.2981 57.5084C73.6887 57.5084 73.9989 57.4255 74.2285 57.2598C74.4605 57.0917 74.5765 56.8905 74.5765 56.6561C74.5765 56.4667 74.5102 56.3081 74.3777 56.1802C74.2451 56.05 74.0415 55.953 73.7669 55.889L72.8578 55.676C72.3583 55.5576 71.9913 55.3741 71.7569 55.1255C71.5249 54.8746 71.4089 54.5609 71.4089 54.1845C71.4089 53.8767 71.4953 53.6045 71.6681 53.3677C71.8433 53.131 72.0813 52.9452 72.3819 52.8102C72.685 52.6753 73.0282 52.6078 73.4118 52.6078C73.9515 52.6078 74.3753 52.7262 74.6831 52.9629C74.9932 53.1996 75.2134 53.5121 75.3436 53.9004Z" fill="#6B7280"/>
<path d="M129.881 58.1334V50.8606H134.27V51.6419H130.761V54.0993H134.043V54.8805H130.761V57.3521H134.327V58.1334H129.881ZM135.744 58.1334V52.6788H136.553V53.5311H136.624C136.738 53.2399 136.921 53.0138 137.175 52.8528C137.428 52.6895 137.732 52.6078 138.087 52.6078C138.447 52.6078 138.747 52.6895 138.986 52.8528C139.227 53.0138 139.415 53.2399 139.55 53.5311H139.607C139.747 53.2494 139.956 53.0256 140.236 52.8599C140.515 52.6918 140.85 52.6078 141.241 52.6078C141.728 52.6078 142.127 52.7605 142.438 53.0659C142.748 53.3689 142.903 53.8412 142.903 54.4828V58.1334H142.065V54.4828C142.065 54.0803 141.955 53.7927 141.734 53.6199C141.514 53.447 141.255 53.3606 140.957 53.3606C140.573 53.3606 140.276 53.4766 140.065 53.7086C139.855 53.9383 139.749 54.2295 139.749 54.5822V58.1334H138.897V54.3976C138.897 54.0874 138.796 53.8377 138.595 53.6483C138.394 53.4565 138.135 53.3606 137.817 53.3606C137.6 53.3606 137.396 53.4186 137.207 53.5346C137.02 53.6506 136.868 53.8116 136.752 54.0176C136.638 54.2212 136.582 54.4568 136.582 54.7243V58.1334H135.744ZM144.435 60.1788V52.6788H145.245V53.5453H145.344C145.406 53.4506 145.491 53.3299 145.6 53.1831C145.711 53.0339 145.87 52.9014 146.076 52.7854C146.284 52.667 146.566 52.6078 146.921 52.6078C147.38 52.6078 147.785 52.7226 148.135 52.9523C148.486 53.1819 148.759 53.5074 148.956 53.9288C149.152 54.3502 149.25 54.8474 149.25 55.4203C149.25 55.9979 149.152 56.4987 148.956 56.9224C148.759 57.3438 148.487 57.6705 148.139 57.9025C147.791 58.1322 147.39 58.247 146.935 58.247C146.585 58.247 146.304 58.189 146.093 58.073C145.883 57.9546 145.721 57.8209 145.607 57.6717C145.493 57.5202 145.406 57.3947 145.344 57.2953H145.273V60.1788H144.435ZM145.259 55.4061C145.259 55.818 145.319 56.1814 145.44 56.4963C145.561 56.8088 145.737 57.0538 145.969 57.2314C146.201 57.4066 146.485 57.4942 146.821 57.4942C147.172 57.4942 147.464 57.4018 147.699 57.2172C147.935 57.0301 148.113 56.7792 148.231 56.4643C148.352 56.1471 148.412 55.7943 148.412 55.4061C148.412 55.0226 148.353 54.6769 148.235 54.3692C148.119 54.059 147.942 53.814 147.706 53.6341C147.471 53.4518 147.176 53.3606 146.821 53.3606C146.48 53.3606 146.194 53.447 145.962 53.6199C145.73 53.7903 145.555 54.0294 145.436 54.3372C145.318 54.6426 145.259 54.9989 145.259 55.4061ZM151.367 50.8606V58.1334H150.529V50.8606H151.367ZM155.118 58.247C154.625 58.247 154.193 58.1298 153.822 57.8954C153.452 57.6611 153.163 57.3332 152.955 56.9118C152.749 56.4904 152.646 55.9979 152.646 55.4345C152.646 54.8663 152.749 54.3703 152.955 53.9466C153.163 53.5228 153.452 53.1937 153.822 52.9594C154.193 52.725 154.625 52.6078 155.118 52.6078C155.61 52.6078 156.041 52.725 156.41 52.9594C156.782 53.1937 157.071 53.5228 157.277 53.9466C157.485 54.3703 157.589 54.8663 157.589 55.4345C157.589 55.9979 157.485 56.4904 157.277 56.9118C157.071 57.3332 156.782 57.6611 156.41 57.8954C156.041 58.1298 155.61 58.247 155.118 58.247ZM155.118 57.4942C155.492 57.4942 155.8 57.3983 156.041 57.2065C156.282 57.0148 156.461 56.7626 156.577 56.4501C156.693 56.1376 156.751 55.7991 156.751 55.4345C156.751 55.0699 156.693 54.7302 156.577 54.4153C156.461 54.1005 156.282 53.846 156.041 53.6518C155.8 53.4577 155.492 53.3606 155.118 53.3606C154.744 53.3606 154.436 53.4577 154.194 53.6518C153.953 53.846 153.774 54.1005 153.658 54.4153C153.542 54.7302 153.484 55.0699 153.484 55.4345C153.484 55.7991 153.542 56.1376 153.658 56.4501C153.774 56.7626 153.953 57.0148 154.194 57.2065C154.436 57.3983 154.744 57.4942 155.118 57.4942ZM159.213 60.1788C159.071 60.1788 158.944 60.167 158.833 60.1433C158.722 60.122 158.645 60.1007 158.602 60.0794L158.815 59.3407C159.019 59.3928 159.199 59.4118 159.355 59.3976C159.511 59.3834 159.65 59.3135 159.771 59.188C159.894 59.0649 160.006 58.8649 160.108 58.5879L160.264 58.1618L158.247 52.6788H159.156L160.662 57.0254H160.719L162.224 52.6788H163.134L160.818 58.9288C160.714 59.2105 160.585 59.4437 160.431 59.6284C160.277 59.8154 160.098 59.9539 159.895 60.0439C159.694 60.1338 159.466 60.1788 159.213 60.1788ZM164.24 58.1334V52.6788H165.049V53.5311H165.12C165.234 53.2399 165.417 53.0138 165.671 52.8528C165.924 52.6895 166.228 52.6078 166.583 52.6078C166.943 52.6078 167.243 52.6895 167.482 52.8528C167.723 53.0138 167.912 53.2399 168.047 53.5311H168.103C168.243 53.2494 168.453 53.0256 168.732 52.8599C169.011 52.6918 169.346 52.6078 169.737 52.6078C170.225 52.6078 170.623 52.7605 170.934 53.0659C171.244 53.3689 171.399 53.8412 171.399 54.4828V58.1334H170.561V54.4828C170.561 54.0803 170.451 53.7927 170.23 53.6199C170.01 53.447 169.751 53.3606 169.453 53.3606C169.069 53.3606 168.772 53.4766 168.561 53.7086C168.351 53.9383 168.245 54.2295 168.245 54.5822V58.1334H167.393V54.3976C167.393 54.0874 167.292 53.8377 167.091 53.6483C166.89 53.4565 166.631 53.3606 166.314 53.3606C166.096 53.3606 165.892 53.4186 165.703 53.5346C165.516 53.6506 165.364 53.8116 165.248 54.0176C165.135 54.2212 165.078 54.4568 165.078 54.7243V58.1334H164.24ZM175.218 58.247C174.692 58.247 174.239 58.131 173.858 57.899C173.479 57.6646 173.187 57.3379 172.981 56.9189C172.777 56.4975 172.675 56.0074 172.675 55.4487C172.675 54.89 172.777 54.3976 172.981 53.9714C173.187 53.5429 173.473 53.2091 173.84 52.97C174.21 52.7285 174.64 52.6078 175.133 52.6078C175.417 52.6078 175.697 52.6551 175.974 52.7498C176.251 52.8445 176.504 52.9984 176.731 53.2115C176.958 53.4222 177.139 53.7015 177.274 54.0496C177.409 54.3976 177.477 54.8261 177.477 55.3351V55.6902H173.272V54.9657H176.624C176.624 54.658 176.563 54.3834 176.44 54.1419C176.319 53.9004 176.146 53.7098 175.921 53.5702C175.699 53.4305 175.436 53.3606 175.133 53.3606C174.799 53.3606 174.51 53.4435 174.266 53.6092C174.025 53.7726 173.839 53.9856 173.709 54.2484C173.579 54.5112 173.513 54.7929 173.513 55.0936V55.5765C173.513 55.9885 173.585 56.3377 173.727 56.6241C173.871 56.9082 174.071 57.1248 174.327 57.274C174.582 57.4208 174.879 57.4942 175.218 57.4942C175.438 57.4942 175.637 57.4634 175.815 57.4018C175.995 57.3379 176.15 57.2432 176.28 57.1177C176.41 56.9899 176.511 56.8313 176.582 56.6419L177.391 56.8692C177.306 57.1438 177.163 57.3853 176.962 57.5936C176.76 57.7996 176.512 57.9605 176.216 58.0765C175.92 58.1902 175.587 58.247 175.218 58.247ZM179.589 54.8521V58.1334H178.751V52.6788H179.561V53.5311H179.632C179.76 53.2541 179.954 53.0316 180.214 52.8635C180.475 52.693 180.811 52.6078 181.223 52.6078C181.592 52.6078 181.915 52.6836 182.192 52.8351C182.469 52.9842 182.685 53.2115 182.839 53.5169C182.993 53.8199 183.07 54.2034 183.07 54.6675V58.1334H182.232V54.7243C182.232 54.2958 182.12 53.962 181.898 53.7229C181.675 53.4814 181.37 53.3606 180.982 53.3606C180.714 53.3606 180.475 53.4186 180.264 53.5346C180.056 53.6506 179.891 53.8199 179.771 54.0425C179.65 54.265 179.589 54.5349 179.589 54.8521ZM186.973 52.6788V53.389H184.146V52.6788H186.973ZM184.97 51.372H185.808V56.5709C185.808 56.8076 185.843 56.9852 185.911 57.1035C185.982 57.2195 186.072 57.2977 186.181 57.3379C186.293 57.3758 186.41 57.3947 186.533 57.3947C186.625 57.3947 186.701 57.39 186.76 57.3805C186.819 57.3687 186.867 57.3592 186.902 57.3521L187.073 58.105C187.016 58.1263 186.936 58.1476 186.835 58.1689C186.733 58.1925 186.604 58.2044 186.448 58.2044C186.211 58.2044 185.979 58.1535 185.752 58.0517C185.527 57.9499 185.34 57.7948 185.191 57.5865C185.044 57.3782 184.97 57.1154 184.97 56.7981V51.372ZM193.404 58.1334H191.16V50.8606H193.504C194.209 50.8606 194.813 51.0062 195.315 51.2974C195.817 51.5862 196.201 52.0017 196.469 52.5439C196.736 53.0836 196.87 53.73 196.87 54.4828C196.87 55.2404 196.735 55.8926 196.465 56.4395C196.195 56.984 195.802 57.403 195.286 57.6966C194.77 57.9878 194.143 58.1334 193.404 58.1334ZM192.041 57.3521H193.347C193.949 57.3521 194.447 57.2361 194.843 57.0041C195.238 56.7721 195.533 56.4418 195.727 56.0133C195.921 55.5848 196.018 55.0746 196.018 54.4828C196.018 53.8957 195.922 53.3902 195.73 52.9665C195.539 52.5403 195.252 52.2136 194.871 51.9863C194.49 51.7567 194.015 51.6419 193.447 51.6419H192.041V57.3521ZM200.521 58.247C199.995 58.247 199.542 58.131 199.161 57.899C198.782 57.6646 198.49 57.3379 198.284 56.9189C198.08 56.4975 197.978 56.0074 197.978 55.4487C197.978 54.89 198.08 54.3976 198.284 53.9714C198.49 53.5429 198.776 53.2091 199.143 52.97C199.512 52.7285 199.943 52.6078 200.436 52.6078C200.72 52.6078 201 52.6551 201.277 52.7498C201.554 52.8445 201.806 52.9984 202.034 53.2115C202.261 53.4222 202.442 53.7015 202.577 54.0496C202.712 54.3976 202.779 54.8261 202.779 55.3351V55.6902H198.575V54.9657H201.927C201.927 54.658 201.865 54.3834 201.742 54.1419C201.622 53.9004 201.449 53.7098 201.224 53.5702C201.001 53.4305 200.739 53.3606 200.436 53.3606C200.102 53.3606 199.813 53.4435 199.569 53.6092C199.328 53.7726 199.142 53.9856 199.012 54.2484C198.881 54.5112 198.816 54.7929 198.816 55.0936V55.5765C198.816 55.9885 198.887 56.3377 199.029 56.6241C199.174 56.9082 199.374 57.1248 199.629 57.274C199.885 57.4208 200.182 57.4942 200.521 57.4942C200.741 57.4942 200.94 57.4634 201.117 57.4018C201.297 57.3379 201.452 57.2432 201.583 57.1177C201.713 56.9899 201.813 56.8313 201.884 56.6419L202.694 56.8692C202.609 57.1438 202.466 57.3853 202.264 57.5936C202.063 57.7996 201.815 57.9605 201.519 58.0765C201.223 58.1902 200.89 58.247 200.521 58.247ZM206.426 52.6788V53.389H203.6V52.6788H206.426ZM204.423 51.372H205.262V56.5709C205.262 56.8076 205.296 56.9852 205.365 57.1035C205.436 57.2195 205.526 57.2977 205.634 57.3379C205.746 57.3758 205.863 57.3947 205.986 57.3947C206.078 57.3947 206.154 57.39 206.213 57.3805C206.272 57.3687 206.32 57.3592 206.355 57.3521L206.526 58.105C206.469 58.1263 206.39 58.1476 206.288 58.1689C206.186 58.1925 206.057 58.2044 205.901 58.2044C205.664 58.2044 205.432 58.1535 205.205 58.0517C204.98 57.9499 204.793 57.7948 204.644 57.5865C204.497 57.3782 204.423 57.1154 204.423 56.7981V51.372ZM209.292 58.2612C208.946 58.2612 208.633 58.1961 208.351 58.0659C208.069 57.9333 207.846 57.7427 207.68 57.4942C207.514 57.2432 207.431 56.9402 207.431 56.5851C207.431 56.2726 207.493 56.0193 207.616 55.8251C207.739 55.6286 207.904 55.4747 208.11 55.3635C208.316 55.2522 208.543 55.1693 208.791 55.1149C209.042 55.0581 209.294 55.0131 209.548 54.98C209.879 54.9373 210.148 54.9054 210.354 54.8841C210.562 54.8604 210.714 54.8213 210.808 54.7669C210.905 54.7124 210.954 54.6177 210.954 54.4828V54.4544C210.954 54.104 210.858 53.8318 210.666 53.6376C210.477 53.4435 210.189 53.3464 209.803 53.3464C209.403 53.3464 209.09 53.434 208.862 53.6092C208.635 53.7844 208.475 53.9714 208.383 54.1703L207.588 53.8862C207.73 53.5548 207.919 53.2967 208.156 53.1121C208.395 52.925 208.655 52.7948 208.937 52.7214C209.221 52.6457 209.5 52.6078 209.775 52.6078C209.95 52.6078 210.151 52.6291 210.379 52.6717C210.608 52.712 210.83 52.796 211.043 52.9238C211.258 53.0517 211.437 53.2446 211.579 53.5027C211.721 53.7607 211.792 54.1064 211.792 54.5396V58.1334H210.954V57.3947H210.911C210.855 57.5131 210.76 57.6398 210.627 57.7747C210.495 57.9096 210.318 58.0245 210.098 58.1192C209.878 58.2139 209.609 58.2612 209.292 58.2612ZM209.42 57.5084C209.751 57.5084 210.031 57.4433 210.258 57.313C210.488 57.1828 210.66 57.0148 210.776 56.8088C210.895 56.6028 210.954 56.3862 210.954 56.1589V55.3919C210.919 55.4345 210.84 55.4736 210.72 55.5091C210.601 55.5422 210.464 55.5718 210.308 55.5979C210.154 55.6215 210.003 55.6428 209.857 55.6618C209.712 55.6783 209.595 55.6925 209.505 55.7044C209.287 55.7328 209.084 55.779 208.894 55.8429C208.707 55.9044 208.556 55.9979 208.44 56.1234C208.326 56.2465 208.269 56.4146 208.269 56.6277C208.269 56.9189 208.377 57.139 208.593 57.2882C208.81 57.435 209.086 57.5084 209.42 57.5084ZM213.322 58.1334V52.6788H214.16V58.1334H213.322ZM213.748 51.7697C213.585 51.7697 213.444 51.7141 213.325 51.6028C213.209 51.4916 213.151 51.3578 213.151 51.2015C213.151 51.0453 213.209 50.9115 213.325 50.8003C213.444 50.689 213.585 50.6334 213.748 50.6334C213.911 50.6334 214.051 50.689 214.167 50.8003C214.285 50.9115 214.344 51.0453 214.344 51.2015C214.344 51.3578 214.285 51.4916 214.167 51.6028C214.051 51.7141 213.911 51.7697 213.748 51.7697ZM216.533 50.8606V58.1334H215.695V50.8606H216.533ZM221.931 53.9004L221.179 54.1135C221.131 53.988 221.061 53.8661 220.969 53.7477C220.879 53.627 220.756 53.5275 220.6 53.4494C220.444 53.3713 220.243 53.3322 220 53.3322C219.666 53.3322 219.388 53.4092 219.165 53.563C218.945 53.7146 218.835 53.9075 218.835 54.1419C218.835 54.3502 218.911 54.5148 219.062 54.6355C219.214 54.7562 219.45 54.8568 219.772 54.9373L220.582 55.1362C221.07 55.2546 221.433 55.4357 221.672 55.6795C221.911 55.921 222.031 56.2323 222.031 56.6135C222.031 56.926 221.941 57.2053 221.761 57.4515C221.583 57.6978 221.335 57.8919 221.015 58.0339C220.696 58.176 220.324 58.247 219.9 58.247C219.344 58.247 218.883 58.1263 218.519 57.8848C218.154 57.6433 217.923 57.2906 217.826 56.8265L218.622 56.6277C218.698 56.9212 218.841 57.1414 219.051 57.2882C219.265 57.435 219.543 57.5084 219.886 57.5084C220.277 57.5084 220.587 57.4255 220.816 57.2598C221.048 57.0917 221.164 56.8905 221.164 56.6561C221.164 56.4667 221.098 56.3081 220.966 56.1802C220.833 56.05 220.629 55.953 220.355 55.889L219.446 55.676C218.946 55.5576 218.579 55.3741 218.345 55.1255C218.113 54.8746 217.997 54.5609 217.997 54.1845C217.997 53.8767 218.083 53.6045 218.256 53.3677C218.431 53.131 218.669 52.9452 218.97 52.8102C219.273 52.6753 219.616 52.6078 220 52.6078C220.539 52.6078 220.963 52.7262 221.271 52.9629C221.581 53.1996 221.801 53.5121 221.931 53.9004Z" fill="#6B7280"/>
</svg>
